<svg width="35" height="35" viewBox="0 0 35 35" fill="none" xmlns="http://www.w3.org/2000/svg">
<path d="M17.5 6.01136L15.9321 4.39979C12.2476 0.612646 5.49969 1.91996 3.06328 6.67809C1.91742 8.91588 1.65977 12.146 3.75001 16.2697C5.76313 20.2412 9.94804 24.9954 17.5 30.1757C25.052 24.9954 29.2369 20.2412 31.25 16.2697C33.3402 12.146 33.0826 8.91588 31.9367 6.67809C29.5003 1.91996 22.7524 0.612646 19.0679 4.39979L17.5 6.01136ZM17.5 32.8125C-16.0412 10.6496 7.17228 -6.6519 17.1157 2.50049C17.2461 2.62056 17.3743 2.74517 17.5 2.87438C17.6257 2.74518 17.7539 2.62057 17.8843 2.50051C27.8277 -6.65192 51.0412 10.6496 17.5 32.8125Z" fill="#36281C"/>
</svg>
