<svg width="35" height="32" viewBox="0 0 35 32" fill="none" xmlns="http://www.w3.org/2000/svg">
<path d="M27.3999 9.95819H27.4123M22.3081 23.381C26.6295 18.6724 29.635 14.9546 31.5121 12.4237C32.5398 11.0393 33.0544 10.3455 32.9955 9.4013C32.8761 7.42887 27.9238 2 25.746 2C24.7494 2 23.948 2.83533 22.3437 4.50755L2.85222 24.823C2.30503 25.4019 2 26.1694 2 26.9674C2 27.7653 2.30503 28.5328 2.85222 29.1117C4.14029 30.4541 6.28242 30.2472 7.31163 28.6792L10.8612 23.2737C12.2841 21.1053 13.3056 21.0928 15.0121 22.8708C16.0429 23.9457 17.3449 25.9477 18.9693 25.929C19.9815 25.9166 20.7565 25.0719 22.3081 23.381Z" stroke="black" stroke-width="2.5" stroke-linecap="round" stroke-linejoin="round"/>
</svg>
