<svg width="28" height="28" viewBox="0 0 28 28" fill="none" xmlns="http://www.w3.org/2000/svg">
<path d="M14.1708 6.35651C15.1951 4.9674 17.1515 4.67162 18.5406 5.69586C19.9297 6.7201 20.2255 8.67651 19.2012 10.0656L12.5249 19.1204C11.9103 19.9538 10.7365 20.1313 9.903 19.5167C9.06953 18.9022 8.89206 17.7284 9.50661 16.8949L14.6994 9.85232C14.9042 9.5745 15.2955 9.51534 15.5733 9.72019C15.8511 9.92504 15.9103 10.3163 15.7054 10.5941L10.5127 17.6367C10.3078 17.9145 10.367 18.3058 10.6448 18.5107C10.9226 18.7155 11.3139 18.6564 11.5188 18.3785L18.1952 9.3238C18.8097 8.49033 18.6322 7.31649 17.7988 6.70194C16.9653 6.0874 15.7915 6.26487 15.1769 7.09833L8.50052 16.1531C7.47628 17.5422 7.77206 19.4986 9.16117 20.5228C10.5503 21.5471 12.5067 21.2513 13.5309 19.8622L18.7237 12.8196C18.9285 12.5418 19.3198 12.4826 19.5976 12.6875C19.8755 12.8923 19.9346 13.2836 19.7298 13.5614L14.537 20.604C13.1031 22.5488 10.3641 22.9629 8.41935 21.5289C6.4746 20.095 6.0605 17.356 7.49444 15.4112L14.1708 6.35651Z" fill="#BBBBBB"/>
</svg>
