<svg width="27" height="29" viewBox="0 0 27 29" fill="none" xmlns="http://www.w3.org/2000/svg">
<path d="M23.5625 27C23.9437 27 24.3094 26.8495 24.579 26.5816C24.8485 26.3137 25 25.9503 25 25.5714V23.7914C25.0057 19.7829 19.2874 16.6429 13.5 16.6429C7.71262 16.6429 2 19.7829 2 23.7914V25.5714C2 25.9503 2.15145 26.3137 2.42103 26.5816C2.69062 26.8495 3.05625 27 3.4375 27H23.5625ZM18.6807 7.14857C18.6807 7.82469 18.5467 8.49419 18.2864 9.11885C18.026 9.7435 17.6444 10.3111 17.1633 10.7892C16.6823 11.2672 16.1111 11.6465 15.4826 11.9052C14.854 12.164 14.1803 12.2971 13.5 12.2971C12.8197 12.2971 12.146 12.164 11.5174 11.9052C10.8889 11.6465 10.3177 11.2672 9.83665 10.7892C9.35558 10.3111 8.97397 9.7435 8.71361 9.11885C8.45325 8.49419 8.31925 7.82469 8.31925 7.14857C8.31925 5.78309 8.86508 4.47353 9.83665 3.50798C10.8082 2.54244 12.126 2 13.5 2C14.874 2 16.1918 2.54244 17.1633 3.50798C18.1349 4.47353 18.6807 5.78309 18.6807 7.14857Z" stroke="black" stroke-width="2.5" stroke-linecap="round" stroke-linejoin="round"/>
</svg>
