<svg width="22" height="22" viewBox="0 0 22 22" fill="none" xmlns="http://www.w3.org/2000/svg">
<path fill-rule="evenodd" clip-rule="evenodd" d="M9.25825 16.618C13.2538 16.618 16.4929 13.3789 16.4929 9.38337C16.4929 5.38781 13.2538 2.14876 9.25825 2.14876C5.26268 2.14876 2.02364 5.38781 2.02364 9.38337C2.02364 13.3789 5.26268 16.618 9.25825 16.618ZM17.8083 9.38337C17.8083 14.1054 13.9803 17.9334 9.25825 17.9334C4.53622 17.9334 0.708252 14.1054 0.708252 9.38337C0.708252 4.66134 4.53622 0.833374 9.25825 0.833374C13.9803 0.833374 17.8083 4.66134 17.8083 9.38337Z" fill="#9F9F9F"/>
<path d="M14.3144 16.2788C14.3532 16.3314 14.3964 16.3818 14.4441 16.4294L19.5089 21.4943C20.0226 22.008 20.8555 22.008 21.3691 21.4943C21.8828 20.9806 21.8828 20.1477 21.3691 19.634L16.3043 14.5692C16.2567 14.5216 16.2063 14.4784 16.1537 14.4396C15.6377 15.1421 15.017 15.7628 14.3144 16.2788Z" fill="#9F9F9F"/>
</svg>
