<svg width="43" height="42" viewBox="0 0 43 42" fill="none" xmlns="http://www.w3.org/2000/svg">
<path d="M21.8003 31.5C27.5993 31.5 32.3003 26.799 32.3003 21C32.3003 15.201 27.5993 10.5 21.8003 10.5C16.0013 10.5 11.3003 15.201 11.3003 21C11.3003 26.799 16.0013 31.5 21.8003 31.5Z" fill="#342619"/>
<path d="M21.8003 0C22.5252 0 23.1128 0.587626 23.1128 1.3125V6.5625C23.1128 7.28737 22.5252 7.875 21.8003 7.875C21.0754 7.875 20.4878 7.28737 20.4878 6.5625V1.3125C20.4878 0.587626 21.0754 0 21.8003 0Z" fill="#342619"/>
<path d="M21.8003 34.125C22.5252 34.125 23.1128 34.7126 23.1128 35.4375V40.6875C23.1128 41.4124 22.5252 42 21.8003 42C21.0754 42 20.4878 41.4124 20.4878 40.6875V35.4375C20.4878 34.7126 21.0754 34.125 21.8003 34.125Z" fill="#342619"/>
<path d="M42.8003 21C42.8003 21.7249 42.2127 22.3125 41.4878 22.3125H36.2378C35.5129 22.3125 34.9253 21.7249 34.9253 21C34.9253 20.2751 35.5129 19.6875 36.2378 19.6875H41.4878C42.2127 19.6875 42.8003 20.2751 42.8003 21Z" fill="#342619"/>
<path d="M8.67529 21C8.67529 21.7249 8.08767 22.3125 7.36279 22.3125H2.11279C1.38792 22.3125 0.800293 21.7249 0.800293 21C0.800293 20.2751 1.38792 19.6875 2.11279 19.6875H7.36279C8.08767 19.6875 8.67529 20.2751 8.67529 21Z" fill="#342619"/>
<path d="M36.6495 6.15084C37.1621 6.6634 37.1621 7.49443 36.6495 8.007L32.9372 11.7193C32.4247 12.2319 31.5936 12.2319 31.0811 11.7193C30.5685 11.2067 30.5685 10.3757 31.0811 9.86315L34.7934 6.15084C35.3059 5.63828 36.137 5.63828 36.6495 6.15084Z" fill="#342619"/>
<path d="M12.5195 30.2809C13.0321 30.7934 13.0321 31.6245 12.5195 32.137L8.8072 35.8493C8.29464 36.3619 7.46361 36.3619 6.95105 35.8493C6.43848 35.3368 6.43848 34.5057 6.95105 33.9932L10.6634 30.2809C11.1759 29.7683 12.0069 29.7683 12.5195 30.2809Z" fill="#342619"/>
<path d="M36.6495 35.8494C36.137 36.3619 35.3059 36.3619 34.7934 35.8494L31.0811 32.137C30.5685 31.6245 30.5685 30.7935 31.0811 30.2809C31.5936 29.7683 32.4247 29.7683 32.9372 30.2809L36.6495 33.9932C37.1621 34.5058 37.1621 35.3368 36.6495 35.8494Z" fill="#342619"/>
<path d="M12.5195 11.7193C12.007 12.2319 11.1759 12.2319 10.6634 11.7193L6.95105 8.00703C6.43849 7.49446 6.43849 6.66343 6.95105 6.15087C7.46361 5.63831 8.29464 5.63831 8.80721 6.15087L12.5195 9.86318C13.0321 10.3757 13.0321 11.2068 12.5195 11.7193Z" fill="#342619"/>
</svg>
