<svg width="31" height="31" viewBox="0 0 31 31" fill="none" xmlns="http://www.w3.org/2000/svg">
<path d="M1.52719 1.52682C2.34078 0.713228 3.65987 0.713228 4.47346 1.52682L15.5003 12.5537L26.5272 1.52682C27.3408 0.713228 28.6599 0.713228 29.4735 1.52682C30.2871 2.34041 30.2871 3.65951 29.4735 4.4731L18.4466 15.5L29.4735 26.5268C30.2871 27.3404 30.2871 28.6595 29.4735 29.4731C28.6599 30.2867 27.3408 30.2867 26.5272 29.4731L15.5003 18.4462L4.47346 29.4731C3.65987 30.2867 2.34078 30.2867 1.52719 29.4731C0.713594 28.6595 0.713594 27.3404 1.52719 26.5268L12.554 15.5L1.52719 4.4731C0.713594 3.65951 0.713594 2.34041 1.52719 1.52682Z" fill="black" fill-opacity="0.5"/>
</svg>
