<?xml version="1.0" encoding="UTF-8"?>
<!DOCTYPE svg PUBLIC "-//W3C//DTD SVG 1.1//EN" "http://www.w3.org/Graphics/SVG/1.1/DTD/svg11.dtd">
<!-- Creator: CorelDRAW -->
<svg xmlns="http://www.w3.org/2000/svg" xml:space="preserve" width="210mm" height="297mm" version="1.1" style="shape-rendering:geometricPrecision; text-rendering:geometricPrecision; image-rendering:optimizeQuality; fill-rule:evenodd; clip-rule:evenodd"
viewBox="0 0 21000 29700"
 xmlns:xlink="http://www.w3.org/1999/xlink"
 xmlns:xodm="http://www.corel.com/coreldraw/odm/2003">
 <defs>
  <style type="text/css">
   <![CDATA[
    .fil3 {fill:#35271A}
    .fil11 {fill:#35271B}
    .fil6 {fill:#35281B}
    .fil14 {fill:#35281C}
    .fil5 {fill:#35291D}
    .fil7 {fill:#36281B}
    .fil1 {fill:#36281C}
    .fil18 {fill:#36291C}
    .fil0 {fill:#36291D}
    .fil12 {fill:#362B1E}
    .fil17 {fill:#37291D}
    .fil19 {fill:#372A1D}
    .fil4 {fill:#372A1E}
    .fil8 {fill:#372B1F}
    .fil13 {fill:#382A1E}
    .fil15 {fill:#382B1F}
    .fil16 {fill:#382C21}
    .fil2 {fill:#392B1F}
    .fil20 {fill:#392D20}
    .fil9 {fill:#392D22}
    .fil10 {fill:#3B2D21}
   ]]>
  </style>
 </defs>
 <g id="Слой_x0020_1">
  <metadata id="CorelCorpID_0Corel-Layer"/>
  <g id="_2259534143824">
   <path class="fil0" d="M12801.84 909.17c376.54,-85.83 646.03,228.91 453.69,573.08 -160.92,287.95 -454.16,170.97 -573.09,-143.26 -63.5,-167.76 -50.21,-391.18 119.4,-429.82z"/>
  </g>
  <g id="_2259534139312">
   <path class="fil0" d="M13709.23 956.93c360.36,-76.77 518.78,212.95 310.43,525.32 -207.2,310.66 -526.94,278.84 -596.97,-71.62 -36.82,-184.33 102.8,-414.55 286.54,-453.7z"/>
  </g>
  <g id="_2259534137920">
   <path class="fil1" d="M12276.52 1434.51c267.26,-27.24 468.23,136.78 477.56,405.93 6.81,196.25 -150.21,293.83 -334.3,238.78 -264.98,-79.24 -376.06,-294 -262.67,-549.21 22.19,-49.94 71,-90.57 119.41,-95.5z"/>
  </g>
  <g id="_2259534135952">
   <path class="fil2" d="M14186.8 1625.53c318.67,-48.23 448.94,210.38 262.67,477.57 -212.94,305.42 -539.74,280.19 -596.97,-71.64 -29.59,-181.84 152.3,-378.38 334.3,-405.93z"/>
  </g>
  <g id="_2259534137824">
   <path class="fil3" d="M13136.15 1864.32c93.66,-62.85 250.19,-51.34 334.3,23.88 202.92,181.45 363.49,409.73 501.45,644.73 95.61,162.86 51.71,389.1 -119.4,453.68 -219.85,82.98 -458.27,-38.63 -692.47,-71.64 -134.94,-19.01 -269.94,55.96 -405.95,47.76 -355.55,-21.46 -453.94,-244.76 -214.9,-525.33 180.66,-212.05 369.95,-420.78 596.97,-573.08z"/>
  </g>
  <g id="_2259534132736">
   <path class="fil4" d="M9172.27 4204.43c293.68,-113.41 462.61,165.68 405.95,477.56 -49.51,272.52 -245.95,390.25 -453.69,214.91 -242.5,-204.67 -248.29,-578.14 47.74,-692.47z"/>
  </g>
  <g id="_2259534134416">
   <path class="fil5" d="M9936.4 4586.49c298.89,-113.7 493.13,42.13 405.93,334.29 -80,268.02 -377.95,440.81 -596.97,262.66 -227.41,-184.99 -88.82,-490.47 191.04,-596.95z"/>
  </g>
  <g id="_2259534130144">
   <path class="fil6" d="M8408.16 4538.73c251.13,-161.47 467.82,105.43 477.57,405.93 7.37,226.71 -128.95,339.99 -334.29,238.78 -272.5,-134.33 -402.53,-478 -143.28,-644.71z"/>
  </g>
  <g id="_2259534129424">
   <path class="fil7" d="M9172.27 5207.32c160.27,-52.09 335.83,37.15 405.95,191.04 106.96,234.78 184.92,486.14 214.9,740.23 33.2,281.29 -166.49,441.2 -429.8,334.31 -159.87,-64.89 -263.66,-238.26 -429.83,-286.55 -172.36,-50.09 -381.72,10.74 -525.33,-95.52 -234.65,-173.64 -175.08,-433.02 95.52,-573.08 222.72,-115.29 438.76,-235.7 668.59,-310.43z"/>
  </g>
  <g id="_2259534130000">
   <path class="fil8" d="M10127.43 5350.6c338.69,-75.32 536.75,148.37 358.18,429.81 -151.96,239.5 -433.63,201.94 -620.85,0 -48.39,-52.2 -42.38,-133.84 0,-191.02 73.09,-98.65 150.41,-213.84 262.67,-238.79z"/>
  </g>
  <g id="_2259534126208">
   <path class="fil7" d="M11607.91 8836.89c261.27,-143.07 481.26,104.33 477.56,405.92 -3.3,269.36 -200.28,426.34 -429.8,286.55 -272.67,-166.06 -321.85,-542.4 -47.76,-692.47z"/>
  </g>
  <g id="_2259534124240">
   <path class="fil9" d="M12515.3 8980.15c271.98,-60.83 431.81,118.23 358.18,382.06 -73.39,263.01 -310.06,421.02 -549.2,310.43 -138.09,-63.86 -131.82,-259.43 -71.64,-405.95 52,-126.6 135.03,-257.98 262.66,-286.54z"/>
  </g>
  <g id="_2259534124816">
   <path class="fil10" d="M10987.06 9314.45c267.99,-119.74 556.68,113.99 525.33,405.95 -34.64,322.48 -333.95,370.55 -549.21,119.38 -136.87,-159.7 -162.11,-442.24 23.88,-525.33z"/>
  </g>
  <g id="_2259534125968">
   <path class="fil11" d="M11798.93 9839.78c113.23,-60.86 286.06,-61.62 382.06,23.88 138.11,122.98 200.18,305.97 310.43,453.71 154.27,206.74 172.68,445.67 23.88,644.71 -46.55,62.27 -141.95,98.95 -214.9,71.64 -197.36,-73.88 -383.8,-224.64 -596.97,-191.03 -546.9,86.25 -784.93,-75.73 -501.47,-525.32 137.58,-218.23 375.03,-358.3 596.97,-477.59z"/>
  </g>
  <g id="_2259534122896">
   <path class="fil8" d="M12801.84 9744.28c330.82,-121.98 541.21,66.96 405.93,382.05 -89.33,208.04 -371.2,311.23 -549.21,167.16 -211.76,-171.41 -113.21,-454.63 143.28,-549.21z"/>
  </g>
  <g id="_2259534120880">
   <path class="fil11" d="M7261.99 11033.72c386.83,-140.65 641.12,197.45 453.7,573.08 -122.97,246.51 -403,202.2 -525.34,-47.76 -85.99,-175.66 -103.5,-461.66 71.64,-525.32z"/>
  </g>
  <g id="_2259534148768">
   <path class="fil12" d="M8169.38 11129.24c362.08,-78.92 520.87,209.92 310.42,525.32 -207.25,310.61 -526.95,278.84 -596.96,-71.64 -36.83,-184.3 102.99,-413.67 286.54,-453.68z"/>
  </g>
  <g id="_2259534149728">
   <path class="fil13" d="M8551.44 11845.59c457.95,-26.34 607.57,264.05 238.79,525.32 -367.82,260.59 -580.4,31.56 -405.95,-382.04 29.93,-70.97 97.15,-139.26 167.16,-143.28z"/>
  </g>
  <g id="_2259534149440">
   <path class="fil7" d="M6736.66 11511.28c409.03,29.68 658.95,413.89 334.3,644.73 -290.83,206.8 -566.77,-146.29 -501.44,-501.45 13.93,-75.73 97.18,-148.35 167.14,-143.28z"/>
  </g>
  <g id="_2259534145216">
   <path class="fil1" d="M7548.53 11988.87c116.08,-69.26 291.31,-27.08 382.07,71.62 139.9,152.14 235.5,335.19 358.18,501.47 231.6,313.87 145.09,651.42 -238.8,620.84 -322.36,-25.66 -587.01,-142.66 -907.37,-95.52 -274.78,40.44 -380.93,-121.09 -286.55,-382.06 24.21,-66.93 44.37,-141.53 95.5,-191.02 192.58,-186.35 371.49,-390.82 596.97,-525.33z"/>
  </g>
  <g id="_2259534146848">
   <path class="fil14" d="M10987.06 14949.81c380.93,-21.16 559.28,311.99 310.42,620.85 -245.35,304.52 -477.22,158.73 -501.44,-238.79 -10.38,-170.3 29.74,-373.11 191.02,-382.06z"/>
  </g>
  <g id="_2259534146368">
   <path class="fil15" d="M11703.43 15331.87c228.22,-83.48 351.92,65.06 334.3,310.43 -15.47,215.66 -120.41,398.79 -334.3,405.94 -159.1,5.31 -248.7,-146.64 -238.79,-310.42 10.56,-174.31 83.7,-349.22 238.79,-405.95z"/>
  </g>
  <g id="_2259534145696">
   <path class="fil1" d="M10127.43 15331.87c271.94,-187.99 560.02,61.43 573.08,382.07 8.96,219.63 -172.61,339.95 -382.06,262.66 -311.89,-115.1 -461.14,-458.02 -191.02,-644.73z"/>
  </g>
  <g id="_2259533779712">
   <path class="fil11" d="M10891.56 16000.48c246.36,-141.78 552.78,89.47 811.87,214.9 314.46,152.24 396.25,386.17 143.26,620.85 -96.91,89.91 -257.19,47.73 -382.05,95.5 -245.89,94.1 -415.63,352.45 -668.6,405.95 -208.64,44.11 -273.61,-186.85 -238.79,-405.95 53.56,-336.88 43.45,-763.84 334.31,-931.25z"/>
  </g>
  <g id="_2259533777504">
   <path class="fil16" d="M9936.4 16048.24c273.73,-57.38 468.18,95.38 525.33,358.17 17.37,79.89 -19.75,163.21 -95.52,191.04 -229.65,84.35 -471.14,37.16 -596.97,-167.16 -99.76,-162 -13.81,-344.11 167.16,-382.05z"/>
  </g>
  <g id="_2259533775680">
   <path class="fil7" d="M8981.25 19152.46c195.16,-114.54 357.52,25.51 405.95,238.79 33.42,147.23 59.4,321.48 -47.76,429.8 -174.66,176.55 -388.01,96.34 -477.57,-143.26 -71.68,-191.75 -52.89,-424.23 119.38,-525.33z"/>
  </g>
  <g id="_2259533775440">
   <path class="fil17" d="M9840.88 19391.25c199,-47.82 302.32,149.58 286.55,358.18 -27.15,359.03 -261.13,522.73 -501.45,262.66 -201.62,-218.19 -74.44,-551.3 214.9,-620.84z"/>
  </g>
  <g id="_2259533788832">
   <path class="fil1" d="M8264.9 19630.03c299.49,-67.29 515.89,83.71 573.09,382.06 14.49,75.65 -23.83,164.98 -95.52,191.03 -427.34,155.28 -676.71,-36.09 -596.97,-477.57 9.71,-53.79 71.91,-84.85 119.4,-95.52z"/>
  </g>
  <g id="_2259533788688">
   <path class="fil1" d="M9124.53 20155.36c309.07,-5.44 625.92,78.68 907.38,214.9 259.59,125.65 302.24,448.02 47.76,573.09 -307.77,151.26 -500.96,311.16 -764.11,525.34 -288.48,234.8 -505.8,2.89 -477.57,-382.06 18.36,-250.39 20.54,-509.48 119.38,-740.23 34.39,-80.29 83.74,-189.58 167.16,-191.04z"/>
  </g>
  <g id="_2259533787776">
   <path class="fil18" d="M8169.38 20394.14c230.63,-128.73 499.97,56.1 525.33,310.42 18.52,185.74 -169,299.2 -358.19,262.67 -405.47,-78.32 -513.39,-379.83 -167.14,-573.09z"/>
  </g>
  <g id="_2259533786816">
   <path class="fil3" d="M13088.39 21731.36c331.11,-170.9 553.54,160.71 453.68,525.32 -51.46,187.92 -248.09,291.47 -405.92,167.15 -218.46,-172.11 -296.69,-564.01 -47.76,-692.47z"/>
  </g>
  <g id="_2259533785376">
   <path class="fil19" d="M13900.26 21922.38c331.31,-110.11 503.83,196.55 358.18,525.33 -108.33,244.56 -348.8,277.06 -477.58,47.76 -107.96,-192.24 -83.79,-505.55 119.4,-573.09z"/>
  </g>
  <g id="_2259533785568">
   <path class="fil17" d="M12419.78 22256.68c476.9,-89.42 793.08,257.38 477.58,596.97 -227.39,244.76 -563.05,-12.07 -620.84,-334.3 -18.74,-104.44 39.87,-243.3 143.26,-262.67z"/>
  </g>
  <g id="_2259534073872">
   <path class="fil1" d="M13327.17 22734.25c302.43,-42.8 620.18,13.9 907.39,119.4 293.21,107.7 359.02,406.38 95.52,573.09 -282.44,178.69 -518.99,325.8 -716.37,596.97 -108.12,148.53 -301.07,140.42 -405.94,0 -94.75,-126.86 -125.7,-294.72 -119.38,-453.71 8.59,-216.09 7.45,-438.18 71.64,-644.71 25.92,-83.41 84.49,-179.36 167.14,-191.04z"/>
  </g>
  <g id="_2259534070272">
   <path class="fil8" d="M12419.78 23020.79c243.56,-67.99 493.85,67.62 525.33,310.43 24.56,189.54 -163.95,269.23 -358.17,262.66 -292.48,-9.89 -454.14,-166.51 -334.3,-429.81 32.76,-71.98 95.12,-123.19 167.14,-143.28z"/>
  </g>
  <g id="_2259534071760">
   <path class="fil0" d="M13136.15 26602.6c362.15,-50.29 552.27,294.54 358.16,620.85 -153.12,257.41 -411.56,186.38 -525.32,-95.52 -86.1,-213.34 -48.5,-495.4 167.16,-525.33z"/>
  </g>
  <g id="_2259534085872">
   <path class="fil20" d="M13852.5 26841.38c425.17,-62.05 614.28,297.32 310.42,620.85 -212.9,226.69 -445.58,58.16 -453.69,-262.66 -3.42,-135.96 13.79,-339.29 143.27,-358.19z"/>
  </g>
  <g id="_2259534085200">
   <path class="fil8" d="M12372.02 27175.69c378.69,-173.03 729.09,101.33 596.97,477.56 -87.17,248.21 -412.07,210.27 -596.97,23.88 -149.11,-150.3 -187.83,-415.62 0,-501.44z"/>
  </g>
  <g id="_2259534079584">
   <path class="fil11" d="M13327.17 27605.49c306.94,-10.9 623.16,48.54 907.39,167.16 267.49,111.64 296.27,417.86 47.76,573.09 -293.4,183.28 -508.9,383.53 -764.13,620.83 -168.62,156.78 -371.05,9.24 -405.92,-214.9 -49.48,-317.97 -56.68,-650.02 47.76,-955.14 28.28,-82.63 83.75,-188.08 167.14,-191.04z"/>
  </g>
  <g id="_2259534079104">
   <path class="fil2" d="M12372.02 27939.8c160.99,-101.21 411.9,-19.59 501.46,143.28 137.65,250.33 -43.8,473.77 -334.3,429.8 -395.49,-59.87 -491.74,-368.99 -167.16,-573.08z"/>
  </g>
 </g>
</svg>
