<?xml version="1.0" encoding="UTF-8"?>
<!DOCTYPE svg PUBLIC "-//W3C//DTD SVG 1.1//EN" "http://www.w3.org/Graphics/SVG/1.1/DTD/svg11.dtd">
<!-- Creator: CorelDRAW -->
<svg xmlns="http://www.w3.org/2000/svg" xml:space="preserve" width="210mm" height="297mm" version="1.1" style="shape-rendering:geometricPrecision; text-rendering:geometricPrecision; image-rendering:optimizeQuality; fill-rule:evenodd; clip-rule:evenodd"
viewBox="0 0 21000 29700"
 xmlns:xlink="http://www.w3.org/1999/xlink"
 xmlns:xodm="http://www.corel.com/coreldraw/odm/2003">
 <defs>
  <style type="text/css">
   <![CDATA[
    .fil1 {fill:#373737}
    .fil8 {fill:#A3A3A3}
    .fil13 {fill:#A6A6A6}
    .fil6 {fill:#A7A7A7}
    .fil7 {fill:#AAAAAA}
    .fil5 {fill:#C47F87}
    .fil9 {fill:#C57E87}
    .fil11 {fill:#C58189}
    .fil10 {fill:#D1D1D1}
    .fil12 {fill:gainsboro}
    .fil2 {fill:#EAEAEA}
    .fil3 {fill:#F6F5F5}
    .fil4 {fill:#F7F6F6}
    .fil0 {fill:#FDFDFD}
   ]]>
  </style>
 </defs>
 <g id="Слой_x0020_1">
  <metadata id="CorelCorpID_0Corel-Layer"/>
  <g id="_2118230285600">
   <path class="fil0" d="M6994.27 11225.21c317.5,0 635,0 952.5,0 -25.34,38.67 -56.21,73.95 -92.6,105.83 -11.48,107.1 -11.48,212.93 0,317.5 -400.38,458.89 -462.11,961.6 -185.21,1508.13 210.46,245.62 400.08,505.8 568.85,780.52 -214.4,139.41 -443.71,254.08 -687.91,343.96 -177.23,138.4 -274.24,319.22 -291.05,542.39 -203.16,13.71 -278.13,119.54 -224.89,317.5 71.43,132.98 181.67,216.75 330.73,251.36 80.98,98.58 178,177.95 291.04,238.12 310.19,95.17 627.69,139.25 952.5,132.29 276.84,91.65 501.73,254.8 674.69,489.48 416.87,577.98 840.21,1151.23 1270,1719.79 270.11,362.09 627.3,498.8 1071.56,410.11 601.34,-232.36 1126.09,-580.74 1574.27,-1045.11 508.93,-612.59 747.05,-1318.12 714.38,-2116.66 -35.27,-88.19 -70.57,-176.4 -105.84,-264.59 -277.18,-270.72 -559.41,-535.3 -846.66,-793.75 -212.68,-221.45 -415.53,-450.75 -608.55,-687.91 -171.13,-298.15 -321.04,-606.83 -449.79,-926.04 -106.97,-212.7 -252.49,-393.5 -436.56,-542.4 -115.44,-71.01 -238.89,-119.52 -370.42,-145.52 -70.01,-17.58 -144.96,-26.4 -224.89,-26.46 -109.36,-5.67 -210.77,11.97 -304.27,52.92 -79.8,9.01 -150.34,39.88 -211.67,92.6 -49.93,20.63 -94.03,16.22 -132.29,-13.23 -53.32,-37.67 -115.04,-55.31 -185.21,-52.91 -209.87,-21.64 -408.31,13.64 -595.31,105.83 -222.06,-457.28 -588.07,-673.36 -1098.02,-648.23 -68.62,-55.93 -139.18,-104.43 -211.67,-145.52 1949.11,0 3898.18,0 5847.29,0 0,2407.71 0,4815.42 0,7223.12 -2328.33,0 -4656.67,0 -6985,0 0,-2407.7 0,-4815.41 0,-7223.12z"/>
  </g>
  <g id="_2118230282432">
   <path class="fil1" d="M7946.77 11225.21c56.41,-25.04 126.19,-18.07 185.21,0 79.67,24.38 143.05,89.59 211.67,145.52 509.95,-25.13 875.96,190.95 1098.02,648.23 187,-92.19 283.52,-120.26 423.67,-116.47 145.41,3.93 253.94,24.99 347.39,65.45 44.26,19.17 100.17,38.08 145.26,8.35 67.52,-44.5 130.54,-69.02 208.16,-89.62 187.56,-49.8 352.65,-43.8 529.16,-26.46 133.43,13.1 261.18,65.32 370.42,145.52 190.82,140.11 340.1,324.74 436.56,542.4 139.45,314.68 256.45,641.81 449.79,926.04 171.98,252.81 395.87,466.46 608.55,687.91 287.25,258.45 592.26,501.54 846.66,793.75 62.35,71.63 98.59,169.9 105.84,264.59 61.04,796.87 -185.34,1521.37 -714.38,2116.66 -428.71,482.38 -958,855.9 -1574.27,1045.11 -433.06,132.97 -800.05,-49.09 -1071.56,-410.11 -428.37,-569.61 -851.41,-1143.07 -1270,-1719.79 -171.23,-235.93 -385.94,-448.84 -674.69,-489.48 -321.71,-45.27 -647.91,-20.5 -952.5,-132.29 -120.21,-44.12 -210.06,-139.54 -291.04,-238.12 -149.06,-34.61 -277.52,-110.11 -330.73,-251.36 -72.26,-191.83 21.73,-303.79 224.89,-317.5 16.81,-223.17 93.33,-435.29 291.05,-542.39 228.8,-123.93 473.51,-204.55 687.91,-343.96 -168.77,-274.72 -399.36,-505.03 -568.85,-780.52 -321.04,-521.82 -233.3,-1168.44 185.21,-1508.13 -11.48,-104.57 -35.07,-215.66 0,-317.5 15.75,-45.74 50.36,-87.08 92.6,-105.83z"/>
  </g>
  <g id="_2118230281328">
   <path class="fil2" d="M7977.75 11326.72c65.09,-47.01 178.01,43.1 233.41,78.86l-259.02 152.84c0,-44.1 -39.48,-184.69 25.61,-231.7z"/>
  </g>
  <g id="_2118230280176">
   <path class="fil3" d="M9058.02 12839.17c-21.84,118.58 -35.07,242.05 -39.69,370.41 -221.34,197.98 -481.51,272.95 -780.52,224.9 -113.11,-21.5 -210.12,-70.01 -291.04,-145.52 -495.74,-665.45 -464.48,-1332.77 264.58,-1733.02 364.61,-200.17 734.32,9.58 992.19,330.73 82.3,111.71 108.76,235.18 79.38,370.41 -129.67,172.93 -204.63,366.96 -224.9,582.09z"/>
  </g>
  <g id="_2118230279744">
   <path class="fil4" d="M11201.15 12018.96c277,101.11 489.84,324.9 595.31,608.54 193.35,519.98 441.3,988.75 833.44,1375.83 27.51,113.25 65.55,238.7 13.23,343.96 -30.74,61.83 -133.41,67.47 -158.75,132.29 -38.96,99.68 -3.12,211.02 13.22,317.5 12.14,79.06 -4.27,173.24 -79.37,198.44 -117.34,39.37 -205.07,56.89 -325.18,86.77 -50.51,12.56 -84.27,68.13 -92.6,119.06 -18.78,114.68 22.14,246.95 -39.69,343.96 -67.47,105.88 -222.74,74.1 -343.96,119.06 -93.53,34.7 -87.6,169.24 -145.52,251.36 -53.01,75.18 -171.25,87.72 -251.35,39.68 -114.07,-68.4 -197.41,-181.52 -317.5,-238.12 -94.65,-44.62 -218,-29.52 -251.36,66.15 -56.24,161.25 8.41,334.48 39.69,502.7 14.19,76.29 -2.29,167.19 -66.14,211.67 -92.73,64.62 -223.33,24.38 -330.73,66.15 -114.01,44.33 -113.93,183.88 -145.53,304.27 -24.04,91.62 -161.94,37.42 -243.67,-7.4 -61.73,-88.18 -123.48,-176.39 -185.21,-264.58 -169.29,-411.82 -425.05,-760.2 -767.29,-1045.1 -116.14,-76.97 -244.03,-107.85 -383.65,-92.61 -233.89,24.74 -467.6,51.2 -701.14,79.38 -239.6,-32.31 -393.94,-164.6 -463.03,-396.88 -85.11,-326.92 -8.72,-612.05 277.82,-780.52 173.78,-102.16 385.52,-130.13 555.62,-238.12 117.42,-74.55 123.3,-87.98 132.29,-171.98 372.69,-220.59 760.74,-242.64 1164.17,-66.15 248.02,45.46 477.34,1.35 687.92,-132.29 49.87,-58.8 107.18,-107.31 171.98,-145.52 358.9,190.15 651.02,123.55 900.66,-190.07 9.2,-40.5 29.94,-62.32 38.61,-100.97 47.07,-119.47 60.3,-242.94 39.69,-370.42 -3.45,56.03 -12.96,174.5 -55.1,233.73 -228.58,207.07 -477.75,251.16 -778.34,176.37 -92.1,-54.3 -187.21,-122.69 -253.86,-200.67 -28.86,-41.01 -63.5,-251.33 -50.41,-526.93 -58.47,234.92 -59.51,320.32 -39.69,476.25 -86.44,254.61 -267.23,378.09 -542.4,370.42 -100.17,7.3 -192.78,-14.75 -277.81,-66.15 -92.57,-98.22 -239.4,-313.25 -239.47,-386.42 -0.39,-403.51 107.01,-692.53 451.14,-896.81 123.81,-73.49 278.4,-66.51 423.33,-52.91 104.66,9.82 201.19,49.43 291.04,105.83 85.3,-76.98 180.88,-136.08 291.04,-158.75 201.67,-41.51 415.16,-70.59 608.55,0z"/>
  </g>
  <g id="_2118230274512">
   <path class="fil5" d="M8402.34 12532.07c279.31,-129.88 595.59,132.47 457.24,492.31 -97.46,253.51 -379.89,233.93 -529.16,0 -105.79,-165.79 -29.51,-445.15 71.92,-492.31z"/>
  </g>
  <g id="_2118230276960">
   <path class="fil6" d="M9136.25 13026.38c48.55,122.27 143.95,288.41 247.14,375.34 75.96,63.98 169.51,72.36 269.94,72.45 275.27,0.27 455.96,-115.81 542.4,-370.42 32.12,118.43 63.04,212.38 110.29,323.26 -264.23,314.46 -689.05,273.43 -918.21,145.43 -99.37,-55.51 -239.51,-350 -251.56,-546.06z"/>
  </g>
  <g id="_2118230276912">
   <path class="fil7" d="M9058.02 12839.17c-40.45,649.26 296.72,986.15 899.58,886.35 156.4,-25.89 304.83,-117.1 410.11,-251.35 262.91,169.32 570.9,215.9 812.51,8.45 96.31,-82.68 167.86,-207.79 183.96,-264.9 -29.43,138.85 -16.25,112.75 -81.86,243.3 -134.65,267.93 -515.94,350.12 -888.15,145.44 -74.36,57.95 -109.98,99.71 -171.98,145.52 -200.59,148.21 -449.28,213.59 -687.92,132.29 -416.8,-141.98 -848.45,-71.11 -1210.06,177.7 100.65,-127.97 4.97,-276.78 -46.71,-349.68 -105.82,-145.4 -216.07,-286.51 -330.73,-423.33 80.92,75.51 177.93,124.02 291.04,145.52 299.01,48.05 559.18,-26.92 780.52,-224.9 4.62,-128.36 17.85,-251.83 39.69,-370.41z"/>
  </g>
  <g id="_2118230276768">
   <path class="fil8" d="M10272.54 13124.61c66.65,77.98 182.75,188.77 284.27,222.13 159.39,52.37 299.94,44.93 440.72,3.1 115.64,-34.36 231.31,-103.62 336.06,-198.51 -142.47,318.47 -466.47,468.88 -820.36,309.61 -120.85,-54.38 -207.59,-210.34 -240.69,-336.33z"/>
  </g>
  <g id="_2118218745920">
   <path class="fil9" d="M9717.03 14037.64c186.5,-183.12 473.97,-0.66 645.24,-18.85 231.55,-24.6 444.63,-152.27 668.89,-8.54 281.39,180.34 149.85,475.58 57.08,627.66 -79.71,130.69 -314.06,163.97 -425.66,285.9 -163.47,178.62 -154.71,278.2 -319.34,417.27 -249,210.35 -589.04,110.67 -701.14,-132.29 -85.49,-185.29 52.33,-377.27 21.88,-556.38 -51.93,-305.52 -133.45,-431.65 53.05,-614.77z"/>
  </g>
  <g id="_2118218745776">
   <path class="fil10" d="M12629.9 14003.33c226.84,201.12 395.5,382.98 623.47,600.4 82.83,116.12 53.57,299.35 -1.7,431.48 -47.77,114.18 -214.43,148.61 -264.59,264.58 -63.12,145.92 29.45,327.41 -26.45,476.25 -42.34,112.73 -188.58,131.42 -304.28,171.98 -24.38,8.55 -37.52,40.06 -39.68,66.15 -11.7,140.92 71.33,301.81 0,423.33 -83.63,142.48 -263.25,202.39 -410.11,277.81 -105.26,54.06 -195.32,-13.07 -291.04,-79.37 -51.39,-35.59 -163.52,-71.85 -185.21,-13.23 -42.4,114.56 64.67,235.37 79.38,357.19 16.29,134.84 -76.44,218.76 -211.67,238.12 -56.91,8.15 -115.1,21.67 -171.98,13.23 -145.93,-21.66 -299.35,-94.43 -436.56,-39.69 -170.89,68.17 -258.2,251.28 -370.42,396.88 -29.52,38.31 -112.34,89.57 -140.89,51.2 -187.52,-252.01 -383.45,-485.67 -573.48,-778.81 45.76,10.72 174.38,38.71 198.43,-52.91 31.6,-120.4 31.52,-259.93 145.53,-304.27 107.41,-41.77 237.99,-1.53 330.73,-66.15 63.85,-44.49 80.33,-135.37 66.14,-211.67 -31.29,-168.22 -95.93,-341.44 -39.69,-502.7 33.37,-95.67 156.7,-110.77 251.36,-66.15 120.09,56.61 203.43,169.71 317.5,238.12 80.11,48.04 198.33,35.5 251.35,-39.68 57.92,-82.13 51.98,-216.66 145.52,-251.36 121.22,-44.97 276.48,-13.18 343.96,-119.06 61.83,-97.02 20.91,-229.27 39.69,-343.96 8.34,-50.93 42.08,-106.49 92.6,-119.06 120.12,-29.89 253.07,12.93 370.42,-26.46 75.12,-25.21 91.51,-119.37 79.37,-198.44 -16.35,-106.48 -52.19,-217.82 -13.22,-317.5 25.34,-64.83 128.01,-70.45 158.75,-132.29 52.33,-105.26 -7.89,-192 -13.23,-343.96z"/>
  </g>
  <g id="_2118218743424">
   <path class="fil11" d="M8098.69 14615.14c197.25,-4.5 325.72,112.88 337.43,228.28 16.2,159.62 -75.67,320.52 -317.37,324.08 -252.04,3.72 -332.47,-137.28 -291.04,-343.96 22.57,-112.63 141.17,-205.44 270.98,-208.4z"/>
  </g>
  <g id="_2118218740304">
   <path class="fil7" d="M13246.85 14597.51c214.69,193.77 435.38,375.96 502.44,527.93 59.06,133.87 46.58,422.13 4.96,666.54 -141.38,830.21 -541.58,1470.5 -1230.19,1955.21 -242.29,170.55 -491.9,334.51 -767.29,449.79 -419.68,175.67 -789.98,74.01 -1071.56,-277.81 -73.83,-92.25 -200.44,-255.75 -277.09,-372.49 44.04,28.9 181.42,80.06 210.94,41.76 112.21,-145.6 199.53,-328.71 370.42,-396.88 137.21,-54.74 290.63,18.03 436.56,39.69 56.88,8.44 115.07,-5.08 171.98,-13.23 135.23,-19.36 227.96,-103.28 211.67,-238.12 -14.71,-121.82 -121.78,-242.63 -79.38,-357.19 21.69,-58.62 133.82,-22.36 185.21,13.23 95.72,66.3 185.78,133.43 291.04,79.37 146.86,-75.42 326.48,-135.33 410.11,-277.81 71.33,-121.52 -11.7,-282.41 0,-423.33 2.16,-26.09 15.3,-57.6 39.68,-66.15 115.7,-40.56 261.94,-59.25 304.28,-171.98 55.9,-148.84 -36.67,-330.33 26.45,-476.25 50.16,-115.97 216.83,-150.4 264.59,-264.58 55.27,-132.12 -49.47,-275.8 -4.82,-437.7z"/>
  </g>
  <g id="_2118218739488">
   <path class="fil12" d="M7250.41 14933.56l59.18 337.33c-249.24,-82.04 -264.76,-349.52 -59.18,-337.33z"/>
  </g>
  <g id="_2118218741696">
   <path class="fil13" d="M9719.48 16596.25c-142.57,-169.78 -272.78,-351.01 -410.11,-529.17 -281.92,-365.75 -660.64,-442.92 -1124.47,-463.02 -112.56,-4.87 -298.42,-46.32 -398,-81.56 270.57,25.43 503.9,-64.33 737.79,-89.07 139.62,-15.24 318.15,31.39 427.5,117.72 349.51,275.92 598,633.28 767.29,1045.1z"/>
  </g>
 </g>
</svg>
